<svg xmlns="http://www.w3.org/2000/svg" version="1.1" xmlns:xlink="http://www.w3.org/1999/xlink" xmlns:svgjs="http://svgjs.dev/svgjs" width="1000" height="1000"><style>
    #light-icon {
      display: inline;
    }
    #dark-icon {
      display: none;
    }

    @media (prefers-color-scheme: dark) {
      #light-icon {
        display: none;
      }
      #dark-icon {
        display: inline;
      }
    }
  </style><g id="light-icon"><svg xmlns="http://www.w3.org/2000/svg" version="1.1" xmlns:xlink="http://www.w3.org/1999/xlink" xmlns:svgjs="http://svgjs.dev/svgjs" width="1000" height="1000"><g clip-path="url(#SvgjsClipPath1094)"><rect width="1000" height="1000" fill="#ffffff"></rect><g transform="matrix(1.953125,0,0,1.953125,-0.23364058462902904,-0.000010267356174153974)"><svg xmlns="http://www.w3.org/2000/svg" version="1.1" xmlns:xlink="http://www.w3.org/1999/xlink" xmlns:svgjs="http://svgjs.dev/svgjs" width="512" height="512"><svg xmlns:dc="http://purl.org/dc/elements/1.1/" xmlns:cc="http://creativecommons.org/ns#" xmlns:rdf="http://www.w3.org/1999/02/22-rdf-syntax-ns#" xmlns:svg="http://www.w3.org/2000/svg" xmlns="http://www.w3.org/2000/svg" xmlns:sodipodi="http://sodipodi.sourceforge.net/DTD/sodipodi-0.dtd" xmlns:inkscape="http://www.inkscape.org/namespaces/inkscape" version="1.0" width="512" height="512" viewBox="0 0 384 383.99999" preserveAspectRatio="xMidYMid meet" id="svg12" sodipodi:docname="logo1.svg" inkscape:version="0.92.2 5c3e80d, 2017-08-06" inkscape:export-filename="/Users/dsa/Dropbox/s4y/favicon2.png" inkscape:export-xdpi="96" inkscape:export-ydpi="96">
  <defs id="defs16">
    <filter inkscape:collect="always" style="color-interpolation-filters:sRGB" id="filter4620" x="-0.0011004409" width="1.0022008" y="-0.0013192552" height="1.0026385">
      <feGaussianBlur inkscape:collect="always" stdDeviation="0.25211164" id="feGaussianBlur4622"></feGaussianBlur>
    </filter>
  <clipPath id="SvgjsClipPath1094"><rect width="1000" height="1000" x="0" y="0" rx="0" ry="0"></rect></clipPath></defs>
  <sodipodi:namedview pagecolor="#ffffff" bordercolor="#666666" borderopacity="1" objecttolerance="10" gridtolerance="10" guidetolerance="10" inkscape:pageopacity="0" inkscape:pageshadow="2" inkscape:window-width="1175" inkscape:window-height="735" id="namedview14" showgrid="false" inkscape:zoom="0.69685039" inkscape:cx="386.9971" inkscape:cy="298.20769" inkscape:window-x="111" inkscape:window-y="103" inkscape:window-maximized="0" inkscape:current-layer="g3906" units="px" fit-margin-top="0" fit-margin-left="0" fit-margin-right="0" fit-margin-bottom="0"></sodipodi:namedview>
  <metadata id="metadata2">
Created by potrace 1.15, written by Peter Selinger 2001-2017
<rdf:rdf>
  <cc:work rdf:about="">
    <dc:format>image/svg+xml</dc:format>
    <dc:type rdf:resource="http://purl.org/dc/dcmitype/StillImage"></dc:type>
    <dc:title></dc:title>
  </cc:work>
</rdf:rdf>
</metadata>
  <g id="g3906" transform="matrix(0.85333326,0,0,0.85405404,92.934179,79.831678)">
    <ellipse style="opacity:1;fill:#cbcbcb;fill-opacity:1;stroke:none;stroke-width:0.94452024;stroke-linejoin:bevel;stroke-miterlimit:4;stroke-dasharray:none;stroke-opacity:1;filter:url(#filter4620)" id="path4577" cx="166.61853" cy="124.12386" rx="274.92068" ry="229.32179" transform="matrix(0.71218016,0,0,0.86344963,-31.345687,48.631945)"></ellipse>
    <path d="M 24.620548,2.8963523 C 4.3307606,8.2183199 -16.646816,30.504091 -22.149131,51.79198 c -5.158419,21.620542 -2.751155,46.234654 6.877896,64.86161 3.782839,7.31767 21.6653625,31.59921 39.547888,53.55236 18.226421,21.95314 34.733367,45.23679 36.796746,52.22187 5.502304,17.96167 1.031679,33.59499 -13.068007,45.56943 -14.44358,12.63968 -32.670002,13.63756 -53.3036818,3.65885 l -13.7557882,-6.98509 1.031683,18.95954 c 1.031684,18.95955 1.031684,18.95955 14.7874741,23.61625 8.2534695,2.99363 22.6970469,4.32414 36.7967329,3.65886 44.01852,-2.32834 68.091158,-29.27085 68.091158,-75.50551 0,-30.26872 -6.877903,-45.5694 -38.172316,-83.4885 -36.10895,-44.2389 -47.801366,-62.865821 -47.801366,-77.168632 0,-17.961667 7.565681,-30.601366 23.040943,-37.586444 12.7241,-5.987253 23.728744,-4.989372 46.769688,3.326223 5.158422,1.995744 5.846209,0.332596 5.846209,-14.302811 0,-15.633325 -0.687787,-16.9638024 -10.66074,-20.2900253 C 63.824551,0.23535943 39.064126,-1.095156 24.620548,2.8963523 Z" id="path6" inkscape:connector-curvature="0" style="fill:#270101;fill-opacity:1;stroke:none;stroke-width:0.33821216"></path>
    <path d="M 85.408403,62.180017 C 66.636309,106.9453 64.960243,111.91921 64.960243,121.68941 v 10.65838 h 20.112945 20.112952 v 23.09321 23.27083 l 9.72126,-0.53293 9.55365,-0.53292 0.50282,-22.73791 0.50282,-22.56028 h 4.02259 c 4.0226,0 4.19022,-0.53292 4.19022,-9.77019 0,-9.23728 -0.16765,-9.7702 -4.19022,-9.7702 H 125.2991 V 63.068221 13.329047 h -9.72127 -9.88887 z M 105.18614,85.27321 V 112.8074 H 93.453575 c -6.369098,0 -11.732534,-0.71055 -11.732534,-1.42111 0,-0.8882 4.190189,-11.36896 9.386029,-23.626112 5.028241,-12.079522 10.05647,-23.803752 10.89452,-26.113083 0.67042,-2.131667 1.84367,-3.908068 2.34652,-3.908068 0.50281,0 0.83803,12.434806 0.83803,27.534183 z" id="path8" inkscape:connector-curvature="0" style="fill:#ffffff;fill-opacity:1;stroke:none;stroke-width:0.17255105"></path>
    <path sodipodi:nodetypes="cccccccccsscccccscccscccccccccccc" d="m 311.84851,-84.520689 c -16.57719,14.525969 -23.42876,27.716448 -34.18307,65.372757 -13.19699,45.597728 -14.92201,50.869679 -21.4089,63.547495 -8.84553,17.654228 -62.47726,89.727457 -72.4456,97.572487 -8.71296,6.79197 -9.18522,6.98137 -14.58582,6.03272 -13.64654,-2.40502 -12.71097,-33.37552 3.00335,-87.494227 8.67639,-30.22759 8.62262,-30.389225 3.06985,-34.208117 -11.90047,-8.418212 -24.40061,2.27423 -26.85644,23.045301 -0.74776,5.796051 -3.98931,23.401333 -7.53257,39.295568 -7.73852,36.263655 -8.1938,46.156125 -2.38534,63.612845 7.74461,23.27569 17.78632,29.32483 36.67612,21.74925 15.58411,-6.24988 29.53114,-20.63707 59.57536,-61.44928 13.52599,-18.065672 25.15382,-32.988394 26.02355,-32.787571 1.7932,0.563285 2.62442,57.756421 1.00811,81.854921 -3.32837,49.51785 -16.97918,90.53425 -39.07778,116.61802 -15.3402,18.24359 -30.28812,28.81848 -57.22708,40.35491 -43.07011,18.55535 -76.637493,23.0402 -112.295792,14.80638 -31.309742,-7.22969 -53.04857742,-22.69464 -63.841791,-45.48053 -4.966349,-10.09985 -5.53955,-16.64855 -5.712453,-51.75467 0.125961,-4.44745 -0.163924,-4.5144 -3.682182,0.19428 -8.474243,10.72673 -13.666604,49.81658 -8.61109,65.01043 9.680778,29.09459 62.044547,55.36155 109.216493,54.76418 7.997983,-0.093 23.853555,-1.50523 35.049705,-3.24725 17.81936,-2.74936 23.42805,-2.4773 50.63595,-13.20557 l 29.88124,-14.49264 17.22583,-13.14962 c 38.92356,-32.85768 48.56675,-51.90464 60.34036,-90.51937 9.20241,-30.25533 11.102,-47.87203 13.84428,-124.086032 1.57974,-47.534112 3.33642,-70.406475 5.87739,-75.639241 2.10152,-4.140493 11.08739,-20.568578 19.99849,-36.417064 28.37438,-49.852434 34.06114,-71.369634 20.99186,-77.670251 -6.04605,-2.888257 -12.76502,-0.560077 -22.57203,7.769872 z" id="path4" inkscape:connector-curvature="0" style="fill:#69091c;fill-opacity:1;stroke:none;stroke-width:0.20798793"></path>
  </g>
</svg></svg></g></g></svg></g><g id="dark-icon"><svg xmlns="http://www.w3.org/2000/svg" version="1.1" xmlns:xlink="http://www.w3.org/1999/xlink" xmlns:svgjs="http://svgjs.dev/svgjs" width="1000" height="1000"><g><g transform="matrix(1.953125,0,0,1.953125,-0.23364058462902904,-0.000010267356174153974)" style="filter: invert(100%)"><svg xmlns="http://www.w3.org/2000/svg" version="1.1" xmlns:xlink="http://www.w3.org/1999/xlink" xmlns:svgjs="http://svgjs.dev/svgjs" width="512" height="512"><svg xmlns:dc="http://purl.org/dc/elements/1.1/" xmlns:cc="http://creativecommons.org/ns#" xmlns:rdf="http://www.w3.org/1999/02/22-rdf-syntax-ns#" xmlns:svg="http://www.w3.org/2000/svg" xmlns="http://www.w3.org/2000/svg" xmlns:sodipodi="http://sodipodi.sourceforge.net/DTD/sodipodi-0.dtd" xmlns:inkscape="http://www.inkscape.org/namespaces/inkscape" version="1.0" width="512" height="512" viewBox="0 0 384 383.99999" preserveAspectRatio="xMidYMid meet" id="svg12" sodipodi:docname="logo1.svg" inkscape:version="0.92.2 5c3e80d, 2017-08-06" inkscape:export-filename="/Users/dsa/Dropbox/s4y/favicon2.png" inkscape:export-xdpi="96" inkscape:export-ydpi="96">
  <defs id="defs16">
    <filter inkscape:collect="always" style="color-interpolation-filters:sRGB" id="filter4620" x="-0.0011004409" width="1.0022008" y="-0.0013192552" height="1.0026385">
      <feGaussianBlur inkscape:collect="always" stdDeviation="0.25211164" id="feGaussianBlur4622"></feGaussianBlur>
    </filter>
  </defs>
  <sodipodi:namedview pagecolor="#ffffff" bordercolor="#666666" borderopacity="1" objecttolerance="10" gridtolerance="10" guidetolerance="10" inkscape:pageopacity="0" inkscape:pageshadow="2" inkscape:window-width="1175" inkscape:window-height="735" id="namedview14" showgrid="false" inkscape:zoom="0.69685039" inkscape:cx="386.9971" inkscape:cy="298.20769" inkscape:window-x="111" inkscape:window-y="103" inkscape:window-maximized="0" inkscape:current-layer="g3906" units="px" fit-margin-top="0" fit-margin-left="0" fit-margin-right="0" fit-margin-bottom="0"></sodipodi:namedview>
  <metadata id="metadata2">
Created by potrace 1.15, written by Peter Selinger 2001-2017
<rdf:rdf>
  <cc:work rdf:about="">
    <dc:format>image/svg+xml</dc:format>
    <dc:type rdf:resource="http://purl.org/dc/dcmitype/StillImage"></dc:type>
    <dc:title></dc:title>
  </cc:work>
</rdf:rdf>
</metadata>
  <g id="g3906" transform="matrix(0.85333326,0,0,0.85405404,92.934179,79.831678)">
    <ellipse style="opacity:1;fill:#cbcbcb;fill-opacity:1;stroke:none;stroke-width:0.94452024;stroke-linejoin:bevel;stroke-miterlimit:4;stroke-dasharray:none;stroke-opacity:1;filter:url(#filter4620)" id="path4577" cx="166.61853" cy="124.12386" rx="274.92068" ry="229.32179" transform="matrix(0.71218016,0,0,0.86344963,-31.345687,48.631945)"></ellipse>
    <path d="M 24.620548,2.8963523 C 4.3307606,8.2183199 -16.646816,30.504091 -22.149131,51.79198 c -5.158419,21.620542 -2.751155,46.234654 6.877896,64.86161 3.782839,7.31767 21.6653625,31.59921 39.547888,53.55236 18.226421,21.95314 34.733367,45.23679 36.796746,52.22187 5.502304,17.96167 1.031679,33.59499 -13.068007,45.56943 -14.44358,12.63968 -32.670002,13.63756 -53.3036818,3.65885 l -13.7557882,-6.98509 1.031683,18.95954 c 1.031684,18.95955 1.031684,18.95955 14.7874741,23.61625 8.2534695,2.99363 22.6970469,4.32414 36.7967329,3.65886 44.01852,-2.32834 68.091158,-29.27085 68.091158,-75.50551 0,-30.26872 -6.877903,-45.5694 -38.172316,-83.4885 -36.10895,-44.2389 -47.801366,-62.865821 -47.801366,-77.168632 0,-17.961667 7.565681,-30.601366 23.040943,-37.586444 12.7241,-5.987253 23.728744,-4.989372 46.769688,3.326223 5.158422,1.995744 5.846209,0.332596 5.846209,-14.302811 0,-15.633325 -0.687787,-16.9638024 -10.66074,-20.2900253 C 63.824551,0.23535943 39.064126,-1.095156 24.620548,2.8963523 Z" id="path6" inkscape:connector-curvature="0" style="fill:#270101;fill-opacity:1;stroke:none;stroke-width:0.33821216"></path>
    <path d="M 85.408403,62.180017 C 66.636309,106.9453 64.960243,111.91921 64.960243,121.68941 v 10.65838 h 20.112945 20.112952 v 23.09321 23.27083 l 9.72126,-0.53293 9.55365,-0.53292 0.50282,-22.73791 0.50282,-22.56028 h 4.02259 c 4.0226,0 4.19022,-0.53292 4.19022,-9.77019 0,-9.23728 -0.16765,-9.7702 -4.19022,-9.7702 H 125.2991 V 63.068221 13.329047 h -9.72127 -9.88887 z M 105.18614,85.27321 V 112.8074 H 93.453575 c -6.369098,0 -11.732534,-0.71055 -11.732534,-1.42111 0,-0.8882 4.190189,-11.36896 9.386029,-23.626112 5.028241,-12.079522 10.05647,-23.803752 10.89452,-26.113083 0.67042,-2.131667 1.84367,-3.908068 2.34652,-3.908068 0.50281,0 0.83803,12.434806 0.83803,27.534183 z" id="path8" inkscape:connector-curvature="0" style="fill:#ffffff;fill-opacity:1;stroke:none;stroke-width:0.17255105"></path>
    <path sodipodi:nodetypes="cccccccccsscccccscccscccccccccccc" d="m 311.84851,-84.520689 c -16.57719,14.525969 -23.42876,27.716448 -34.18307,65.372757 -13.19699,45.597728 -14.92201,50.869679 -21.4089,63.547495 -8.84553,17.654228 -62.47726,89.727457 -72.4456,97.572487 -8.71296,6.79197 -9.18522,6.98137 -14.58582,6.03272 -13.64654,-2.40502 -12.71097,-33.37552 3.00335,-87.494227 8.67639,-30.22759 8.62262,-30.389225 3.06985,-34.208117 -11.90047,-8.418212 -24.40061,2.27423 -26.85644,23.045301 -0.74776,5.796051 -3.98931,23.401333 -7.53257,39.295568 -7.73852,36.263655 -8.1938,46.156125 -2.38534,63.612845 7.74461,23.27569 17.78632,29.32483 36.67612,21.74925 15.58411,-6.24988 29.53114,-20.63707 59.57536,-61.44928 13.52599,-18.065672 25.15382,-32.988394 26.02355,-32.787571 1.7932,0.563285 2.62442,57.756421 1.00811,81.854921 -3.32837,49.51785 -16.97918,90.53425 -39.07778,116.61802 -15.3402,18.24359 -30.28812,28.81848 -57.22708,40.35491 -43.07011,18.55535 -76.637493,23.0402 -112.295792,14.80638 -31.309742,-7.22969 -53.04857742,-22.69464 -63.841791,-45.48053 -4.966349,-10.09985 -5.53955,-16.64855 -5.712453,-51.75467 0.125961,-4.44745 -0.163924,-4.5144 -3.682182,0.19428 -8.474243,10.72673 -13.666604,49.81658 -8.61109,65.01043 9.680778,29.09459 62.044547,55.36155 109.216493,54.76418 7.997983,-0.093 23.853555,-1.50523 35.049705,-3.24725 17.81936,-2.74936 23.42805,-2.4773 50.63595,-13.20557 l 29.88124,-14.49264 17.22583,-13.14962 c 38.92356,-32.85768 48.56675,-51.90464 60.34036,-90.51937 9.20241,-30.25533 11.102,-47.87203 13.84428,-124.086032 1.57974,-47.534112 3.33642,-70.406475 5.87739,-75.639241 2.10152,-4.140493 11.08739,-20.568578 19.99849,-36.417064 28.37438,-49.852434 34.06114,-71.369634 20.99186,-77.670251 -6.04605,-2.888257 -12.76502,-0.560077 -22.57203,7.769872 z" id="path4" inkscape:connector-curvature="0" style="fill:#69091c;fill-opacity:1;stroke:none;stroke-width:0.20798793"></path>
  </g>
</svg></svg></g></g></svg></g></svg>